<svg xmlns="http://www.w3.org/2000/svg" xmlns:xlink="http://www.w3.org/1999/xlink" width="1969.712" height="1150.42" viewBox="0 0 1969.712 1150.42">
  <defs>
    <linearGradient id="linear-gradient" x1="0.5" x2="0.5" y2="1" gradientUnits="objectBoundingBox">
      <stop offset="0" stop-opacity="0"/>
      <stop offset="0.523" stop-color="#ff9203"/>
      <stop offset="1" stop-opacity="0"/>
    </linearGradient>
    <linearGradient id="linear-gradient-2" x1="0.5" x2="0.5" y2="1" gradientUnits="objectBoundingBox">
      <stop offset="0" stop-opacity="0"/>
      <stop offset="0.523" stop-color="#03ffb2"/>
      <stop offset="1" stop-opacity="0"/>
    </linearGradient>
    <linearGradient id="linear-gradient-3" x1="0.5" x2="0.5" y2="1" gradientUnits="objectBoundingBox">
      <stop offset="0" stop-opacity="0"/>
      <stop offset="0.523" stop-color="#0379ff"/>
      <stop offset="1" stop-opacity="0"/>
    </linearGradient>
    <linearGradient id="linear-gradient-5" x1="0.5" x2="0.5" y2="1" gradientUnits="objectBoundingBox">
      <stop offset="0" stop-opacity="0"/>
      <stop offset="0.523" stop-color="#ff7903"/>
      <stop offset="1" stop-opacity="0"/>
    </linearGradient>
    <linearGradient id="linear-gradient-6" x1="0.5" x2="0.5" y2="1" gradientUnits="objectBoundingBox">
      <stop offset="0" stop-opacity="0"/>
      <stop offset="0.523" stop-color="#0303ff"/>
      <stop offset="1" stop-opacity="0"/>
    </linearGradient>
    <linearGradient id="linear-gradient-7" x1="0.5" x2="0.5" y2="1" gradientUnits="objectBoundingBox">
      <stop offset="0" stop-opacity="0"/>
      <stop offset="0.523" stop-color="#d7ff03"/>
      <stop offset="1" stop-opacity="0"/>
    </linearGradient>
    <linearGradient id="linear-gradient-8" x1="0.5" x2="0.5" y2="1" gradientUnits="objectBoundingBox">
      <stop offset="0" stop-opacity="0"/>
      <stop offset="0.523" stop-color="#03d4ff"/>
      <stop offset="1" stop-opacity="0"/>
    </linearGradient>
    <linearGradient id="linear-gradient-9" x1="0.5" x2="0.5" y2="1" gradientUnits="objectBoundingBox">
      <stop offset="0" stop-opacity="0"/>
      <stop offset="0.523" stop-color="#03ff14"/>
      <stop offset="1" stop-opacity="0"/>
    </linearGradient>
  </defs>
  <g id="Group_1" data-name="Group 1" transform="translate(13.933 56.17)">
    <rect id="Rectangle_1" data-name="Rectangle 1" width="8" height="841" transform="translate(1227.452 1036.982) rotate(-120)" opacity="0.51" fill="url(#linear-gradient)"/>
    <rect id="Rectangle_2" data-name="Rectangle 2" width="9" height="598" transform="translate(1183.952 971.848) rotate(-120)" opacity="0.34" fill="url(#linear-gradient-2)"/>
    <rect id="Rectangle_3" data-name="Rectangle 3" width="8" height="598" transform="translate(46.067 1078.982) rotate(-120)" opacity="0.38" fill="url(#linear-gradient-3)"/>
    <rect id="Rectangle_10" data-name="Rectangle 10" width="8.654" height="598" transform="translate(432.32 803.549) rotate(-120)" fill="url(#linear-gradient-3)"/>
    <rect id="Rectangle_11" data-name="Rectangle 11" width="5.654" height="340" transform="translate(874.809 330.951) rotate(-120)" fill="url(#linear-gradient-5)"/>
    <rect id="Rectangle_5" data-name="Rectangle 5" width="8" height="427" transform="translate(1144.533 522.982) rotate(-120)" opacity="0.26" fill="url(#linear-gradient-6)"/>
    <rect id="Rectangle_6" data-name="Rectangle 6" width="6" height="283" transform="translate(1544.452 216.25) rotate(-120)" opacity="0.57" fill="url(#linear-gradient-7)"/>
    <rect id="Rectangle_7" data-name="Rectangle 7" width="6" height="283" transform="translate(716.543 1094.25) rotate(-120)" fill="url(#linear-gradient-8)"/>
    <rect id="Rectangle_4" data-name="Rectangle 4" width="4" height="210.447" transform="translate(44.067 888.518) rotate(-120)" fill="url(#linear-gradient-9)"/>
    <rect id="Rectangle_8" data-name="Rectangle 8" width="4" height="114.447" transform="translate(-11.933 289.518) rotate(-120)" fill="url(#linear-gradient-9)"/>
    <rect id="Rectangle_9" data-name="Rectangle 9" width="5.032" height="332.447" transform="translate(297.044 114.412) rotate(-120)" fill="url(#linear-gradient-9)"/>
    <g id="Polygon_1" data-name="Polygon 1" transform="translate(646 1037)" fill="none">
      <path d="M21.5,0,43,38H0Z" stroke="none"/>
      <path d="M 21.49999046325684 6.092178344726563 L 5.144256591796875 35 L 37.85573959350586 35 L 21.49999046325684 6.092178344726563 M 21.49999046325684 0 L 43 38 L 0 38 L 21.49999046325684 0 Z" stroke="none" fill="#c8f9ff"/>
    </g>
    <g id="Polygon_2" data-name="Polygon 2" transform="translate(122 748)" fill="none">
      <path d="M21.5,0,43,38H0Z" stroke="none"/>
      <path d="M 21.49999046325684 6.092178344726563 L 5.144256591796875 35 L 37.85573959350586 35 L 21.49999046325684 6.092178344726563 M 21.49999046325684 0 L 43 38 L 0 38 L 21.49999046325684 0 Z" stroke="none" fill="#d6fbff"/>
    </g>
    <g id="Polygon_3" data-name="Polygon 3" transform="translate(719 3)" fill="none">
      <path d="M21.5,0,43,38H0Z" stroke="none"/>
      <path d="M 21.49999046325684 6.092178344726563 L 5.144256591796875 35 L 37.85573959350586 35 L 21.49999046325684 6.092178344726563 M 21.49999046325684 0 L 43 38 L 0 38 L 21.49999046325684 0 Z" stroke="none" fill="#b7f8ff"/>
    </g>
    <g id="Polygon_4" data-name="Polygon 4" transform="translate(1888 527)" fill="none" opacity="0.29">
      <path d="M21.5,0,43,38H0Z" stroke="none"/>
      <path d="M 21.49999046325684 6.092178344726563 L 5.144256591796875 35 L 37.85573959350586 35 L 21.49999046325684 6.092178344726563 M 21.49999046325684 0 L 43 38 L 0 38 L 21.49999046325684 0 Z" stroke="none" fill="#00e5ff"/>
    </g>
    <g id="Polygon_5" data-name="Polygon 5" transform="translate(1528 847)" fill="none">
      <path d="M16.5,0,33,30H0Z" stroke="none"/>
      <path d="M 16.49999046325684 4.150077819824219 L 3.382541656494141 28 L 29.61745643615723 28 L 16.49999046325684 4.150077819824219 M 16.49999046325684 1.9073486328125e-06 L 33 30 L 0 30 L 16.49999046325684 1.9073486328125e-06 Z" stroke="none" fill="#00e5ff"/>
    </g>
  </g>
</svg>
