<svg xmlns="http://www.w3.org/2000/svg" width="251" height="248" viewBox="0 0 251 248">
  <g id="Group_14" data-name="Group 14" transform="translate(-90 -177)">
    <g id="Group_4" data-name="Group 4" transform="translate(58 48)">
      <g id="Ellipse_6" data-name="Ellipse 6" transform="translate(32 129)" fill="#fe0" stroke="#74003e" stroke-width="6">
        <circle cx="124" cy="124" r="124" stroke="none"/>
        <circle cx="124" cy="124" r="121" fill="none"/>
      </g>
      <g id="imagebot_10" transform="translate(76.656 -986.25)">
        <path id="imagebot_18" d="M110.146,1312.214c4.588,7.51-.6,12.311-7.583,15.881-9.886,5.047-34.345,2.585-42.719-2.462-7.686-4.678-11.1-11.449-7.437-17.481" fill="#fff" stroke="#4e002f" stroke-linecap="round" stroke-linejoin="round" stroke-width="5"/>
        <path id="imagebot_17" d="M26.289,1256.938c-1.055,19.328,17.1,49.613,38.612,56.753,11.107,3.57,36.1,4.678,44.927-1.847,15.115-11.08,22.748-25.483,26.207-43.211a80.867,80.867,0,0,0,1.17-19.328c-1.587-21.623-18.255-34.33-25.368-39.308-.224-14.1,1.2-31.085,3.467-47.052,3.387-23.883-29.966-17.863-32.909,4.543-1.378,10.489-3.762,19.094-6.29,42.583-3.872-12.656-10.379-30.826-12.563-43.384-3.6-20.719-33.309-8.3-28.374,16.94,3.362,17.186,8.7,29.841,11.99,46.215C43.7,1232.563,27.39,1236.871,26.289,1256.938Z" fill="#fff" stroke="#4e002f" stroke-linecap="round" stroke-linejoin="round" stroke-width="5"/>
        <path id="imagebot_16" d="M73.343,1209.59c3.739,15.585,9.222,22.726,11.263,26.419-2.61-9.75-3.531-12.151-5.533-22.714a21.965,21.965,0,0,1-.143-6.562l-5.588,2.856Z"/>
        <path id="imagebot_15" d="M109.339,1210.12c.155,9.406,2.6,20.695,6.12,27.736-.377-10.184-.684-18.224-1.27-27.916-.026,0-2.414.185-4.85.185Z"/>
        <path id="imagebot_14" d="M98.046,1302.858c4.969-11.942,4.895-15.389,6.4-21.421" fill="none" stroke="#4e002f" stroke-linecap="round" stroke-linejoin="round" stroke-width="5"/>
        <path id="imagebot_13" d="M86.5,1303.719c2.084-14.157,1.754-21.175,2.285-30.654" fill="none" stroke="#4e002f" stroke-linecap="round" stroke-linejoin="round" stroke-width="5"/>
        <path id="imagebot_12" d="M72.685,1304.335c.121-9.849-.736-14.527-1.29-20.682" fill="none" stroke="#4e002f" stroke-linecap="round" stroke-linejoin="round" stroke-width="5"/>
        <path id="imagebot_11" d="M44.35,1228.648c4.791,20.658-1.479,28.783-5.647,39.247,6.334-10.833,14.945-14.527,10.884-38.668l-5.237-.579Z"/>
      </g>
    </g>
    <g id="Group_10" data-name="Group 10" transform="translate(19.659 15.405)">
      <rect id="Rectangle_2" data-name="Rectangle 2" width="24" height="3" rx="1.5" transform="translate(123.341 262.595)" fill="#2b2b2b"/>
      <rect id="Rectangle_3" data-name="Rectangle 3" width="24.456" height="3.006" rx="1.503" transform="translate(133.838 276.69) rotate(-90)" fill="#2b2b2b"/>
    </g>
    <g id="Group_12" data-name="Group 12" transform="translate(127.435 124.291)">
      <rect id="Rectangle_2-2" data-name="Rectangle 2" width="12" height="1" rx="0.5" transform="translate(123.565 257.709)" fill="#2b2b2b"/>
      <rect id="Rectangle_3-2" data-name="Rectangle 3" width="12.684" height="1.559" rx="0.78" transform="translate(128.785 264.918) rotate(-90)" fill="#2b2b2b"/>
    </g>
    <g id="Group_11" data-name="Group 11" transform="translate(86.659 -48.156)">
      <g id="Rectangle_2-3" data-name="Rectangle 2" transform="translate(121.341 256.156)" fill="#2b2b2b" stroke="#2b2b2b" stroke-width="1">
        <rect width="15" height="2" rx="1" stroke="none"/>
        <rect x="-0.5" y="-0.5" width="16" height="3" rx="1.5" fill="none"/>
      </g>
      <g id="Rectangle_3-3" data-name="Rectangle 3" transform="translate(128.001 265.251) rotate(-90)" fill="#2b2b2b" stroke="#2b2b2b" stroke-width="1">
        <rect width="15.751" height="1.79" rx="0.895" stroke="none"/>
        <rect x="-0.5" y="-0.5" width="16.751" height="2.79" rx="1.395" fill="none"/>
      </g>
    </g>
    <g id="Group_13" data-name="Group 13" transform="translate(161.662 55.998)">
      <rect id="Rectangle_2-4" data-name="Rectangle 2" width="9" height="2" rx="1" transform="translate(121.338 253.002)" fill="#fff"/>
      <rect id="Rectangle_3-4" data-name="Rectangle 3" width="9.444" height="1.073" rx="0.537" transform="translate(125.334 258.944) rotate(-90)" fill="#fff"/>
    </g>
    <g id="Ellipse_7" data-name="Ellipse 7" transform="translate(304 226)" fill="#74003e" stroke="#fff" stroke-width="6">
      <circle cx="18.5" cy="18.5" r="18.5" stroke="none"/>
      <circle cx="18.5" cy="18.5" r="15.5" fill="none"/>
    </g>
    <g id="Ellipse_8" data-name="Ellipse 8" transform="translate(90 252)" fill="#74003e" stroke="#fff" stroke-width="4">
      <circle cx="9.5" cy="9.5" r="9.5" stroke="none"/>
      <circle cx="9.5" cy="9.5" r="7.5" fill="none"/>
    </g>
  </g>
</svg>
